<svg width="60" height="46" viewBox="0 0 60 46" fill="none" xmlns="http://www.w3.org/2000/svg">
<g opacity="0.4">
<path d="M59.7443 34.8967L50.5682 25.7206C50.4457 25.5984 50.2897 25.5152 50.1199 25.4816C49.9501 25.4479 49.7742 25.4653 49.6143 25.5315C49.4544 25.5976 49.3176 25.7097 49.2213 25.8535C49.125 25.9973 49.0734 26.1664 49.073 26.3394V30.517H25.9775V40.5114H49.0755V44.689C49.0759 44.8621 49.1275 45.0312 49.2238 45.175C49.3201 45.3187 49.4569 45.4308 49.6168 45.497C49.7767 45.5632 49.9527 45.5805 50.1224 45.5468C50.2922 45.5132 50.4482 45.43 50.5708 45.3078L59.7468 36.1318C59.9095 35.9672 60.0005 35.7451 60.0001 35.5137C59.9996 35.2823 59.9076 35.0605 59.7443 34.8967Z" fill="#C6DBA9"/>
<path d="M32.3149 30.5293C30.664 31.5967 28.7394 32.1633 26.7734 32.1609V40.5237H34.7295C39.2829 38.5638 42.9649 35.0102 45.0851 30.5293H32.3149Z" fill="url(#paint0_linear_250_16424)"/>
<path d="M46.2209 20.2832C46.2317 15.0884 44.2448 10.0884 40.6714 6.3179C37.0981 2.54738 32.2119 0.295026 27.024 0.0269855C21.8362 -0.241055 16.7439 1.49574 12.801 4.87791C8.85809 8.26009 6.36647 13.0287 5.84178 18.1969L2.46233 17.8913C2.31055 17.8782 2.15829 17.9103 2.02467 17.9835C1.89106 18.0566 1.78205 18.1677 1.71134 18.3026C1.64063 18.4376 1.61138 18.5904 1.62726 18.7419C1.64313 18.8934 1.70343 19.0368 1.80058 19.1542L9.51927 28.406C9.79205 28.7344 10.277 28.7773 10.378 28.5045L19.6298 20.7833C20.3876 20.3413 20.1173 19.4825 19.4328 19.4194L15.8008 19.091C16.0297 17.1283 16.8213 15.2735 18.0802 13.7503C19.3391 12.2271 21.0115 11.1004 22.8961 10.5059C24.7806 9.9114 26.7969 9.8745 28.7019 10.3996C30.6069 10.9248 32.3195 11.9896 33.6332 13.4657C34.947 14.9419 35.8059 16.7664 36.1065 18.7195C36.4071 20.6726 36.1365 22.6709 35.3274 24.4738C34.5183 26.2766 33.2051 27.8071 31.5462 28.8807C29.8872 29.9544 27.9531 30.5254 25.977 30.5251H25.9283V40.5094C31.2249 40.4031 36.7093 38.2263 40.4202 34.4455C44.1311 30.6648 46.2134 25.5808 46.2209 20.2832Z" fill="#D7A39E"/>
<path d="M25.9773 30.5293H0V40.5237H25.9773V30.5293Z" fill="url(#paint1_linear_250_16424)"/>
</g>
<defs>
<linearGradient id="paint0_linear_250_16424" x1="6.53714" y1="35.5252" x2="47.0198" y2="35.5252" gradientUnits="userSpaceOnUse">
<stop stop-color="#6C798F"/>
<stop offset="1" stop-color="#6C798F" stop-opacity="0.1"/>
</linearGradient>
<linearGradient id="paint1_linear_250_16424" x1="0" y1="36" x2="26" y2="36" gradientUnits="userSpaceOnUse">
<stop stop-color="#E8D4D3" stop-opacity="0"/>
<stop offset="1" stop-color="#E2A39F"/>
</linearGradient>
</defs>
</svg>
