<svg width="60" height="60" viewBox="0 0 60 60" fill="none" xmlns="http://www.w3.org/2000/svg">
<g opacity="0.4">
<path d="M9.375 30C11.6402 30 13.4766 28.1637 13.4766 25.8984C13.4766 23.6332 11.6402 21.7969 9.375 21.7969C7.10977 21.7969 5.27344 23.6332 5.27344 25.8984C5.27344 28.1637 7.10977 30 9.375 30Z" fill="#AE2A19"/>
<path d="M26.25 24.375C28.5152 24.375 30.3516 22.5387 30.3516 20.2734C30.3516 18.0082 28.5152 16.1719 26.25 16.1719C23.9848 16.1719 22.1484 18.0082 22.1484 20.2734C22.1484 22.5387 23.9848 24.375 26.25 24.375Z" fill="#BF63F3"/>
<path d="M15.3931 35.8594H11.0159V33.0938C9.93587 33.3387 8.81469 33.3387 7.73465 33.0938V35.8594H1.87528C1.55115 35.8601 1.2345 35.9568 0.965283 36.1373C0.696064 36.3178 0.486343 36.574 0.362583 36.8736C0.238824 37.1731 0.206573 37.5027 0.269899 37.8205C0.333226 38.1384 0.489292 38.4304 0.718404 38.6597L7.05872 45L0.718404 51.3403C0.489292 51.5696 0.333226 51.8616 0.269899 52.1795C0.206573 52.4973 0.238824 52.8269 0.362583 53.1264C0.486343 53.426 0.696064 53.6822 0.965283 53.8627C1.2345 54.0432 1.55115 54.1399 1.87528 54.1406H15.3931L21.7503 45L15.3931 35.8594Z" fill="#82B536"/>
<path d="M34.4562 35.8594H27.8937V27.4688C26.8137 27.7138 25.6925 27.7138 24.6125 27.4688V35.8594H19.3896L25.7487 45L19.3896 54.1406H34.4562L40.8143 45L34.4562 35.8594Z" fill="#82B536"/>
<path d="M43.8281 19.6875H55.3125C55.7475 19.6873 56.1647 19.5143 56.4723 19.2067C56.7799 18.8991 56.9529 18.4819 56.9531 18.0469V9.375C56.9529 8.93996 56.7799 8.5228 56.4723 8.21518C56.1647 7.90755 55.7475 7.73462 55.3125 7.73438H43.8281V7.5C43.8281 7.06488 43.6553 6.64758 43.3476 6.3399C43.0399 6.03223 42.6226 5.85938 42.1875 5.85938C41.7524 5.85938 41.3351 6.03223 41.0274 6.3399C40.7197 6.64758 40.5469 7.06488 40.5469 7.5V32.5781H43.8281V19.6875Z" fill="#FCA700"/>
<path d="M59.2843 43.8403L51.7843 36.3403C51.6322 36.1878 51.4514 36.0668 51.2524 35.9842C51.0534 35.9017 50.8401 35.8593 50.6246 35.8594H38.4521L44.8121 45L38.4531 54.1406H50.6246C50.8401 54.1407 51.0534 54.0983 51.2524 54.0158C51.4514 53.9332 51.6322 53.8122 51.7843 53.6597L59.2843 46.1597C59.4368 46.0075 59.5577 45.8267 59.6402 45.6277C59.7228 45.4287 59.7652 45.2154 59.7652 45C59.7652 44.7846 59.7228 44.5713 59.6402 44.3723C59.5577 44.1733 59.4368 43.9925 59.2843 43.8403Z" fill="#82B536"/>
</g>
</svg>
