<svg width="48" height="48" viewBox="0 0 48 48" fill="none" xmlns="http://www.w3.org/2000/svg">
<g clip-path="url(#clip0_82_2990)">
<rect width="48" height="48" rx="24" fill="#798A99"/>
<g opacity="0.08">
<rect x="0.6" y="0.6" width="46.8" height="46.8" rx="23.4" stroke="black" stroke-width="1.2"/>
</g>
<path d="M24 27.0596C26.5526 27.0596 29.0007 26.0556 30.8057 24.2684C32.6107 22.4812 33.6247 20.0573 33.6247 17.5298C33.6247 15.0023 32.6107 12.5784 30.8057 10.7912C29.0007 9.00403 26.5526 8 24 8C21.4474 8 18.9993 9.00403 17.1943 10.7912C15.3893 12.5784 14.3753 15.0023 14.3753 17.5298C14.3753 20.0573 15.3893 22.4812 17.1943 24.2684C18.9993 26.0556 21.4474 27.0596 24 27.0596ZM24 31.2465C11.2034 31.2465 3 38.2387 3 41.643V48H45V41.643C45 37.526 37.2338 31.2465 24 31.2465Z" fill="white" fill-opacity="0.6"/>
<path d="M24 14C22.8971 14 22 14.9158 22 16.0417C22 16.3642 22.2554 16.625 22.5714 16.625C22.8874 16.625 23.1429 16.3642 23.1429 16.0417C23.1429 15.5592 23.5274 15.1667 24 15.1667C24.4726 15.1667 24.8571 15.5592 24.8571 16.0417C24.8571 16.5241 24.4726 16.9167 24 16.9167C23.684 16.9167 23.4286 17.1774 23.4286 17.5V18.6667C23.4286 18.9892 23.684 19.25 24 19.25C24.316 19.25 24.5714 18.9892 24.5714 18.6667V17.9882C25.3943 17.7351 26 16.9633 26 16.0417C26 14.9158 25.1029 14 24 14Z" fill="white" fill-opacity="0.7"/>
<path d="M24 19.8333C23.684 19.8333 23.4286 20.0941 23.4286 20.4167C23.4286 20.7392 23.684 21 24 21C24.316 21 24.5714 20.7392 24.5714 20.4167C24.5714 20.0941 24.316 19.8333 24 19.8333Z" fill="white" fill-opacity="0.7"/>
</g>
<defs>
<clipPath id="clip0_82_2990">
<rect width="48" height="48" rx="24" fill="white"/>
</clipPath>
</defs>
</svg>
